<svg width="32" height="32" viewBox="0 0 32 32" fill="none" xmlns="http://www.w3.org/2000/svg">
  <defs>
    <linearGradient id="grad" x1="0%" y1="0%" x2="100%" y2="100%">
      <stop offset="0%" style="stop-color:#3B82F6;stop-opacity:1" />
      <stop offset="100%" style="stop-color:#6366F1;stop-opacity:1" />
    </linearGradient>
  </defs>
  
  <circle cx="16" cy="16" r="15" fill="url(#grad)" />
  
  <path 
    d="M20.5 10.5h-9a2 2 0 00-2 2v7a2 2 0 002 2h9a2 2 0 002-2v-7a2 2 0 00-2-2zM16 18.5c-1.4 0-2.5-1.1-2.5-2.5s1.1-2.5 2.5-2.5 2.5 1.1 2.5 2.5-1.1 2.5-2.5 2.5z"
    fill="white"
  />
  
  <path 
    d="M11 13l2-2M21 19l-2 2M21 13l-2-2M11 19l2 2"
    stroke="white"
    stroke-width="1.5"
    stroke-linecap="round"
  />
</svg> 